# xmcd
#
# Track frame offsets:
#	150
#	13033
#	26579
#	39708
#	54838
#	69295
#	80837
#	92809
#	106211
#	117362
#	129737
#	142559
#	155286
#	167002
#	178903
#	191632
#	202540
#	215559
#
# Disc length: 3050 seconds
#
# Revision: 1
# Processed by: cddbd v1.5.2PL0 Copyright (c) Steve Scherf et al.
# Submitted via: audiograbber 1.83.01
#
DISCID=ed0be812
DTITLE=S4040-05 - The story of Rhythm and Blues CD5 - The story of Rhythm and Blues
DTITLE=CD5
DYEAR=19
DGENRE=R&B
TTITLE0=Milburn Amos - Chicken Shack Boogie
TTITLE1=Roosevelt Skyes and his Honey Drippers - The Honeydripper
TTITLE2=Lyon Lonnie - Down in the Groovy
TTITLE3=Hawkins Erskine - After Hours
TTITLE4=Rhodes Todd and his Orchestra - Bell Boy Boogie
TTITLE5=King Pee Wee - Ten Gallon Boogie
TTITLE6=Waters Muddy - Got my Mojo Working
TTITLE7=Saunders King and his Rhythm - Swingin'
TTITLE8=Hal Singers - Beef Stew
TTITLE9=Harris Wynonie - Good Rockin' Tonight
TTITLE10=Cooley Spade - Oklahoma Stomp
TTITLE11=Lewis Meade Lux - Honky Tonk Train
TTITLE12=Jones Albina - Hey little Boy
TTITLE13=Fudson Lowell - I want to see my Baby
TTITLE14=Milburn Amos - Hold me
TTITLE15=Howlin' Wolf - Highway Man
TTITLE16=Walker T-Bone - I'm gonna find my Baby
TTITLE17=Jordan Louis - Saxa Woogie
EXTD=
EXTT0=
EXTT1=
EXTT2=
EXTT3=
EXTT4=
EXTT5=
EXTT6=
EXTT7=
EXTT8=
EXTT9=
EXTT10=
EXTT11=
EXTT12=
EXTT13=
EXTT14=
EXTT15=
EXTT16=
EXTT17=
PLAYORDER=
